<?xml version="1.0" encoding="utf-8"?>
<svg id="master-artboard" viewBox="0 0 1100 750" version="1.1" xmlns="http://www.w3.org/2000/svg" x="0px" y="0px" style="enable-background:new 0 0 1400 980;" width="1100px" height="750px"><defs><style id="ee-google-fonts">@import url(https://fonts.googleapis.com/css?family=Abril+Fatface:400|Roboto:100,100italic,300,300italic,400,400italic,500,500italic,700,700italic,900,900italic|Trocchi:400);</style></defs><rect id="ee-background" x="0" y="0" width="1100" height="750" style="fill: rgb(24, 188, 156); fill-opacity: 1; pointer-events: none;"/><path d="M 420.3703918457031 350.4156494140625 L 420.3703918457031 434.6571960449219 L 684.7454833984375 497.3902587890625 L 683.8493041992188 285.89019775390625" style="fill: rgb(255, 255, 255); fill-opacity: 1; stroke: rgb(0, 0, 0); stroke-opacity: 1; stroke-width: 0; paint-order: fill;" transform="matrix(1.6757043600082397, 0, 0, 1.6757043600082397, -435.8340759277344, -265.76837158203125)"/><path d="M 2.9600000381469727 9.600000381469727 C 2.9733333587646484 8.940000534057617 3.049999952316284 8.420000076293945 3.190000057220459 8.039999961853027 C 3.3299999237060547 7.6533331871032715 3.609999895095825 7.230000019073486 4.03000020980835 6.769999980926514 L 5.119999885559082 5.650000095367432 C 5.586666584014893 5.12333345413208 5.820000171661377 4.556666374206543 5.820000171661377 3.9499998092651367 C 5.820000171661377 3.369999885559082 5.666666507720947 2.9166669845581055 5.360000133514404 2.5900001525878906 C 5.059999942779541 2.256667137145996 4.616666793823242 2.0900001525878906 4.03000020980835 2.0900001525878906 C 3.4700000286102295 2.0900001525878906 3.0166666507720947 2.239999771118164 2.6700000762939453 2.5399999618530273 C 2.3299999237060547 2.8400001525878906 2.1600000858306885 3.239999771118164 2.1600000858306885 3.739999771118164 L 0.6200000047683716 3.739999771118164 C 0.6333333253860474 2.8466663360595703 0.95333331823349 2.123332977294922 1.5800000429153442 1.5699996948242188 C 2.2066667079925537 1.0233335494995117 3.0233333110809326 0.75 4.03000020980835 0.75 C 5.076666831970215 0.75 5.893333435058594 1.0299997329711914 6.480000019073486 1.5900001525878906 C 7.059999942779541 2.1499996185302734 7.349999904632568 2.9200000762939453 7.349999904632568 3.8999996185302734 C 7.349999904632568 4.866666793823242 6.9033331871032715 5.823333263397217 6.010000228881836 6.769999980926514 L 5.099999904632568 7.659999847412109 C 4.699999809265137 8.106666564941406 4.5 8.753334045410156 4.5 9.600000381469727 L 2.9600000381469727 9.600000381469727 M 2.9000000953674316 12.229999542236328 C 2.9000000953674316 11.976666450500488 2.9766666889190674 11.766666412353516 3.130000114440918 11.600000381469727 C 3.2766666412353516 11.433333396911621 3.5 11.350000381469727 3.799999952316284 11.350000381469727 C 4.099999904632568 11.350000381469727 4.326666831970215 11.433333396911621 4.480000019073486 11.600000381469727 C 4.633333206176758 11.766666412353516 4.710000038146973 11.976666450500488 4.710000038146973 12.229999542236328 C 4.710000038146973 12.476666450500488 4.633333206176758 12.683333396911621 4.480000019073486 12.850000381469727 C 4.326666831970215 13.010000228881836 4.099999904632568 13.09000015258789 3.799999952316284 13.09000015258789 C 3.5 13.09000015258789 3.2766666412353516 13.010000228881836 3.130000114440918 12.850000381469727 C 2.9766666889190674 12.683333396911621 2.9000000953674316 12.476666450500488 2.9000000953674316 12.229999542236328 ZM 10.984256744384766 9.600000381469727 C 10.997590065002441 8.940000534057617 11.074256896972656 8.420000076293945 11.214256286621094 8.039999961853027 C 11.354256629943848 7.6533331871032715 11.634256362915039 7.230000019073486 12.054256439208984 6.769999980926514 L 13.144256591796875 5.650000095367432 C 13.610923767089844 5.12333345413208 13.844257354736328 4.556666374206543 13.844257354736328 3.9499998092651367 C 13.844257354736328 3.369999885559082 13.690923690795898 2.9166669845581055 13.384256362915039 2.5900001525878906 C 13.084257125854492 2.256667137145996 12.640923500061035 2.0900001525878906 12.054256439208984 2.0900001525878906 C 11.494256973266602 2.0900001525878906 11.040923118591309 2.239999771118164 10.694256782531738 2.5399999618530273 C 10.354256629943848 2.8400001525878906 10.184256553649902 3.239999771118164 10.184256553649902 3.739999771118164 L 8.644256591796875 3.739999771118164 C 8.65758991241455 2.8466663360595703 8.97758960723877 2.123332977294922 9.604256629943848 1.5699996948242188 C 10.230923652648926 1.0233335494995117 11.047590255737305 0.75 12.054256439208984 0.75 C 13.100923538208008 0.75 13.917590141296387 1.0299997329711914 14.504257202148438 1.5900001525878906 C 15.084257125854492 2.1499996185302734 15.374256134033203 2.9200000762939453 15.374256134033203 3.8999996185302734 C 15.374256134033203 4.866666793823242 14.927589416503906 5.823333263397217 14.034256935119629 6.769999980926514 L 13.124256134033203 7.659999847412109 C 12.72425651550293 8.106666564941406 12.524256706237793 8.753334045410156 12.524256706237793 9.600000381469727 L 10.984256744384766 9.600000381469727 M 10.924257278442383 12.229999542236328 C 10.924257278442383 11.976666450500488 11.000923156738281 11.766666412353516 11.154256820678711 11.600000381469727 C 11.300923347473145 11.433333396911621 11.524256706237793 11.350000381469727 11.824256896972656 11.350000381469727 C 12.124256134033203 11.350000381469727 12.350923538208008 11.433333396911621 12.504257202148438 11.600000381469727 C 12.65758991241455 11.766666412353516 12.734256744384766 11.976666450500488 12.734256744384766 12.229999542236328 C 12.734256744384766 12.476666450500488 12.65758991241455 12.683333396911621 12.504257202148438 12.850000381469727 C 12.350923538208008 13.010000228881836 12.124256134033203 13.09000015258789 11.824256896972656 13.09000015258789 C 11.524256706237793 13.09000015258789 11.300923347473145 13.010000228881836 11.154256820678711 12.850000381469727 C 11.000923156738281 12.683333396911621 10.924257278442383 12.476666450500488 10.924257278442383 12.229999542236328 ZM 19.008514404296875 9.600000381469727 C 19.021846771240234 8.940000534057617 19.098512649536133 8.420000076293945 19.238513946533203 8.039999961853027 C 19.37851333618164 7.6533331871032715 19.65851402282715 7.230000019073486 20.078514099121094 6.769999980926514 L 21.168514251708984 5.650000095367432 C 21.63517951965332 5.12333345413208 21.868513107299805 4.556666374206543 21.868513107299805 3.9499998092651367 C 21.868513107299805 3.369999885559082 21.715179443359375 2.9166669845581055 21.40851402282715 2.5900001525878906 C 21.10851287841797 2.256667137145996 20.665180206298828 2.0900001525878906 20.078514099121094 2.0900001525878906 C 19.518512725830078 2.0900001525878906 19.0651798248291 2.239999771118164 18.71851348876953 2.5399999618530273 C 18.37851333618164 2.8400001525878906 18.208513259887695 3.239999771118164 18.208513259887695 3.739999771118164 L 16.668514251708984 3.739999771118164 C 16.681846618652344 2.8466663360595703 17.001846313476562 2.123332977294922 17.62851333618164 1.5699996948242188 C 18.25518035888672 1.0233335494995117 19.07184600830078 0.75 20.078514099121094 0.75 C 21.125179290771484 0.75 21.94184684753418 1.0299997329711914 22.528512954711914 1.5900001525878906 C 23.10851287841797 2.1499996185302734 23.398513793945312 2.9200000762939453 23.398513793945312 3.8999996185302734 C 23.398513793945312 4.866666793823242 22.951847076416016 5.823333263397217 22.058513641357422 6.769999980926514 L 21.148513793945312 7.659999847412109 C 20.748512268066406 8.106666564941406 20.548513412475586 8.753334045410156 20.548513412475586 9.600000381469727 L 19.008514404296875 9.600000381469727 M 18.94851303100586 12.229999542236328 C 18.94851303100586 11.976666450500488 19.02518081665039 11.766666412353516 19.178512573242188 11.600000381469727 C 19.325180053710938 11.433333396911621 19.548513412475586 11.350000381469727 19.848512649536133 11.350000381469727 C 20.148513793945312 11.350000381469727 20.375179290771484 11.433333396911621 20.528512954711914 11.600000381469727 C 20.681846618652344 11.766666412353516 20.758514404296875 11.976666450500488 20.758514404296875 12.229999542236328 C 20.758514404296875 12.476666450500488 20.681846618652344 12.683333396911621 20.528512954711914 12.850000381469727 C 20.375179290771484 13.010000228881836 20.148513793945312 13.09000015258789 19.848512649536133 13.09000015258789 C 19.548513412475586 13.09000015258789 19.325180053710938 13.010000228881836 19.178512573242188 12.850000381469727 C 19.02518081665039 12.683333396911621 18.94851303100586 12.476666450500488 18.94851303100586 12.229999542236328 Z" transform="matrix(2.367544174194336, -0.9365670680999756, 0.9365670680999756, 2.367544174194336, 135.64886474609375, 395.67901611328125)" style="fill: rgb(51, 51, 51); white-space: pre; color: rgb(51, 51, 51);"/><path d="M 2.9600000381469727 9.600000381469727 C 2.9733333587646484 8.940000534057617 3.049999952316284 8.420000076293945 3.190000057220459 8.039999961853027 C 3.3299999237060547 7.6533331871032715 3.609999895095825 7.230000019073486 4.03000020980835 6.769999980926514 L 5.119999885559082 5.650000095367432 C 5.586666584014893 5.12333345413208 5.820000171661377 4.556666374206543 5.820000171661377 3.9499998092651367 C 5.820000171661377 3.369999885559082 5.666666507720947 2.9166669845581055 5.360000133514404 2.5900001525878906 C 5.059999942779541 2.256667137145996 4.616666793823242 2.0900001525878906 4.03000020980835 2.0900001525878906 C 3.4700000286102295 2.0900001525878906 3.0166666507720947 2.239999771118164 2.6700000762939453 2.5399999618530273 C 2.3299999237060547 2.8400001525878906 2.1600000858306885 3.239999771118164 2.1600000858306885 3.739999771118164 L 0.6200000047683716 3.739999771118164 C 0.6333333253860474 2.8466663360595703 0.95333331823349 2.123332977294922 1.5800000429153442 1.5699996948242188 C 2.2066667079925537 1.0233335494995117 3.0233333110809326 0.75 4.03000020980835 0.75 C 5.076666831970215 0.75 5.893333435058594 1.0299997329711914 6.480000019073486 1.5900001525878906 C 7.059999942779541 2.1499996185302734 7.349999904632568 2.9200000762939453 7.349999904632568 3.8999996185302734 C 7.349999904632568 4.866666793823242 6.9033331871032715 5.823333263397217 6.010000228881836 6.769999980926514 L 5.099999904632568 7.659999847412109 C 4.699999809265137 8.106666564941406 4.5 8.753334045410156 4.5 9.600000381469727 L 2.9600000381469727 9.600000381469727 M 2.9000000953674316 12.229999542236328 C 2.9000000953674316 11.976666450500488 2.9766666889190674 11.766666412353516 3.130000114440918 11.600000381469727 C 3.2766666412353516 11.433333396911621 3.5 11.350000381469727 3.799999952316284 11.350000381469727 C 4.099999904632568 11.350000381469727 4.326666831970215 11.433333396911621 4.480000019073486 11.600000381469727 C 4.633333206176758 11.766666412353516 4.710000038146973 11.976666450500488 4.710000038146973 12.229999542236328 C 4.710000038146973 12.476666450500488 4.633333206176758 12.683333396911621 4.480000019073486 12.850000381469727 C 4.326666831970215 13.010000228881836 4.099999904632568 13.09000015258789 3.799999952316284 13.09000015258789 C 3.5 13.09000015258789 3.2766666412353516 13.010000228881836 3.130000114440918 12.850000381469727 C 2.9766666889190674 12.683333396911621 2.9000000953674316 12.476666450500488 2.9000000953674316 12.229999542236328 ZM 10.984724044799805 9.600000381469727 C 10.99805736541748 8.940000534057617 11.074724197387695 8.420000076293945 11.214723587036133 8.039999961853027 C 11.354723930358887 7.6533331871032715 11.634723663330078 7.230000019073486 12.054723739624023 6.769999980926514 L 13.144723892211914 5.650000095367432 C 13.611391067504883 5.12333345413208 13.844724655151367 4.556666374206543 13.844724655151367 3.9499998092651367 C 13.844724655151367 3.369999885559082 13.691390991210938 2.9166669845581055 13.384723663330078 2.5900001525878906 C 13.084724426269531 2.256667137145996 12.641390800476074 2.0900001525878906 12.054723739624023 2.0900001525878906 C 11.49472427368164 2.0900001525878906 11.041390419006348 2.239999771118164 10.694724082946777 2.5399999618530273 C 10.354723930358887 2.8400001525878906 10.184723854064941 3.239999771118164 10.184723854064941 3.739999771118164 L 8.644723892211914 3.739999771118164 C 8.65805721282959 2.8466663360595703 8.978056907653809 2.123332977294922 9.604723930358887 1.5699996948242188 C 10.231390953063965 1.0233335494995117 11.048057556152344 0.75 12.054723739624023 0.75 C 13.101390838623047 0.75 13.918057441711426 1.0299997329711914 14.504724502563477 1.5900001525878906 C 15.084724426269531 2.1499996185302734 15.374723434448242 2.9200000762939453 15.374723434448242 3.8999996185302734 C 15.374723434448242 4.866666793823242 14.928056716918945 5.823333263397217 14.034724235534668 6.769999980926514 L 13.124723434448242 7.659999847412109 C 12.724723815917969 8.106666564941406 12.524724006652832 8.753334045410156 12.524724006652832 9.600000381469727 L 10.984724044799805 9.600000381469727 M 10.924724578857422 12.229999542236328 C 10.924724578857422 11.976666450500488 11.00139045715332 11.766666412353516 11.15472412109375 11.600000381469727 C 11.301390647888184 11.433333396911621 11.524724006652832 11.350000381469727 11.824724197387695 11.350000381469727 C 12.124723434448242 11.350000381469727 12.351390838623047 11.433333396911621 12.504724502563477 11.600000381469727 C 12.65805721282959 11.766666412353516 12.734724044799805 11.976666450500488 12.734724044799805 12.229999542236328 C 12.734724044799805 12.476666450500488 12.65805721282959 12.683333396911621 12.504724502563477 12.850000381469727 C 12.351390838623047 13.010000228881836 12.124723434448242 13.09000015258789 11.824724197387695 13.09000015258789 C 11.524724006652832 13.09000015258789 11.301390647888184 13.010000228881836 11.15472412109375 12.850000381469727 C 11.00139045715332 12.683333396911621 10.924724578857422 12.476666450500488 10.924724578857422 12.229999542236328 ZM 19.009449005126953 9.600000381469727 C 19.022781372070312 8.940000534057617 19.09944725036621 8.420000076293945 19.23944854736328 8.039999961853027 C 19.37944793701172 7.6533331871032715 19.659448623657227 7.230000019073486 20.079448699951172 6.769999980926514 L 21.169448852539062 5.650000095367432 C 21.6361141204834 5.12333345413208 21.869447708129883 4.556666374206543 21.869447708129883 3.9499998092651367 C 21.869447708129883 3.369999885559082 21.716114044189453 2.9166669845581055 21.409448623657227 2.5900001525878906 C 21.109447479248047 2.256667137145996 20.666114807128906 2.0900001525878906 20.079448699951172 2.0900001525878906 C 19.519447326660156 2.0900001525878906 19.06611442565918 2.239999771118164 18.71944808959961 2.5399999618530273 C 18.37944793701172 2.8400001525878906 18.209447860717773 3.239999771118164 18.209447860717773 3.739999771118164 L 16.669448852539062 3.739999771118164 C 16.682781219482422 2.8466663360595703 17.00278091430664 2.123332977294922 17.62944793701172 1.5699996948242188 C 18.256114959716797 1.0233335494995117 19.07278060913086 0.75 20.079448699951172 0.75 C 21.126113891601562 0.75 21.942781448364258 1.0299997329711914 22.529447555541992 1.5900001525878906 C 23.109447479248047 2.1499996185302734 23.39944839477539 2.9200000762939453 23.39944839477539 3.8999996185302734 C 23.39944839477539 4.866666793823242 22.952781677246094 5.823333263397217 22.0594482421875 6.769999980926514 L 21.14944839477539 7.659999847412109 C 20.749446868896484 8.106666564941406 20.549448013305664 8.753334045410156 20.549448013305664 9.600000381469727 L 19.009449005126953 9.600000381469727 M 18.949447631835938 12.229999542236328 C 18.949447631835938 11.976666450500488 19.02611541748047 11.766666412353516 19.179447174072266 11.600000381469727 C 19.326114654541016 11.433333396911621 19.549448013305664 11.350000381469727 19.84944725036621 11.350000381469727 C 20.14944839477539 11.350000381469727 20.376113891601562 11.433333396911621 20.529447555541992 11.600000381469727 C 20.682781219482422 11.766666412353516 20.759449005126953 11.976666450500488 20.759449005126953 12.229999542236328 C 20.759449005126953 12.476666450500488 20.682781219482422 12.683333396911621 20.529447555541992 12.850000381469727 C 20.376113891601562 13.010000228881836 20.14944839477539 13.09000015258789 19.84944725036621 13.09000015258789 C 19.549448013305664 13.09000015258789 19.326114654541016 13.010000228881836 19.179447174072266 12.850000381469727 C 19.02611541748047 12.683333396911621 18.949447631835938 12.476666450500488 18.949447631835938 12.229999542236328 Z" transform="matrix(1.6464592218399048, -0.6513159871101379, 0.6513159871101379, 1.6464592218399048, 206.69564819335938, 397.75323486328125)" style="fill: rgb(51, 51, 51); white-space: pre; color: rgb(51, 51, 51);"/><path d="M 2.9600000381469727 9.600000381469727 C 2.9733333587646484 8.940000534057617 3.049999952316284 8.420000076293945 3.190000057220459 8.039999961853027 C 3.3299999237060547 7.6533331871032715 3.609999895095825 7.230000019073486 4.03000020980835 6.769999980926514 L 5.119999885559082 5.650000095367432 C 5.586666584014893 5.12333345413208 5.820000171661377 4.556666374206543 5.820000171661377 3.9499998092651367 C 5.820000171661377 3.369999885559082 5.666666507720947 2.9166669845581055 5.360000133514404 2.5900001525878906 C 5.059999942779541 2.256667137145996 4.616666793823242 2.0900001525878906 4.03000020980835 2.0900001525878906 C 3.4700000286102295 2.0900001525878906 3.0166666507720947 2.239999771118164 2.6700000762939453 2.5399999618530273 C 2.3299999237060547 2.8400001525878906 2.1600000858306885 3.239999771118164 2.1600000858306885 3.739999771118164 L 0.6200000047683716 3.739999771118164 C 0.6333333253860474 2.8466663360595703 0.95333331823349 2.123332977294922 1.5800000429153442 1.5699996948242188 C 2.2066667079925537 1.0233335494995117 3.0233333110809326 0.75 4.03000020980835 0.75 C 5.076666831970215 0.75 5.893333435058594 1.0299997329711914 6.480000019073486 1.5900001525878906 C 7.059999942779541 2.1499996185302734 7.349999904632568 2.9200000762939453 7.349999904632568 3.8999996185302734 C 7.349999904632568 4.866666793823242 6.9033331871032715 5.823333263397217 6.010000228881836 6.769999980926514 L 5.099999904632568 7.659999847412109 C 4.699999809265137 8.106666564941406 4.5 8.753334045410156 4.5 9.600000381469727 L 2.9600000381469727 9.600000381469727 M 2.9000000953674316 12.229999542236328 C 2.9000000953674316 11.976666450500488 2.9766666889190674 11.766666412353516 3.130000114440918 11.600000381469727 C 3.2766666412353516 11.433333396911621 3.5 11.350000381469727 3.799999952316284 11.350000381469727 C 4.099999904632568 11.350000381469727 4.326666831970215 11.433333396911621 4.480000019073486 11.600000381469727 C 4.633333206176758 11.766666412353516 4.710000038146973 11.976666450500488 4.710000038146973 12.229999542236328 C 4.710000038146973 12.476666450500488 4.633333206176758 12.683333396911621 4.480000019073486 12.850000381469727 C 4.326666831970215 13.010000228881836 4.099999904632568 13.09000015258789 3.799999952316284 13.09000015258789 C 3.5 13.09000015258789 3.2766666412353516 13.010000228881836 3.130000114440918 12.850000381469727 C 2.9766666889190674 12.683333396911621 2.9000000953674316 12.476666450500488 2.9000000953674316 12.229999542236328 ZM 10.984251976013184 9.600000381469727 C 10.99758529663086 8.940000534057617 11.074252128601074 8.420000076293945 11.214252471923828 8.039999961853027 C 11.354251861572266 7.6533331871032715 11.634251594543457 7.230000019073486 12.054252624511719 6.769999980926514 L 13.144251823425293 5.650000095367432 C 13.610918045043945 5.12333345413208 13.84425163269043 4.556666374206543 13.84425163269043 3.9499998092651367 C 13.84425163269043 3.369999885559082 13.69091796875 2.9166669845581055 13.384252548217773 2.5900001525878906 C 13.084251403808594 2.256667137145996 12.640918731689453 2.0900001525878906 12.054252624511719 2.0900001525878906 C 11.49425220489502 2.0900001525878906 11.040918350219727 2.239999771118164 10.694252014160156 2.5399999618530273 C 10.354251861572266 2.8400001525878906 10.18425178527832 3.239999771118164 10.18425178527832 3.739999771118164 L 8.644251823425293 3.739999771118164 C 8.657585144042969 2.8466663360595703 8.977584838867188 2.123332977294922 9.604251861572266 1.5699996948242188 C 10.230918884277344 1.0233335494995117 11.047585487365723 0.75 12.054252624511719 0.75 C 13.100918769836426 0.75 13.917585372924805 1.0299997329711914 14.504251480102539 1.5900001525878906 C 15.084251403808594 2.1499996185302734 15.374252319335938 2.9200000762939453 15.374252319335938 3.8999996185302734 C 15.374252319335938 4.866666793823242 14.92758560180664 5.823333263397217 14.034252166748047 6.769999980926514 L 13.124252319335938 7.659999847412109 C 12.724251747131348 8.106666564941406 12.524251937866211 8.753334045410156 12.524251937866211 9.600000381469727 L 10.984251976013184 9.600000381469727 M 10.924251556396484 12.229999542236328 C 10.924251556396484 11.976666450500488 11.0009183883667 11.766666412353516 11.154252052307129 11.600000381469727 C 11.300918579101562 11.433333396911621 11.524251937866211 11.350000381469727 11.824252128601074 11.350000381469727 C 12.124252319335938 11.350000381469727 12.350918769836426 11.433333396911621 12.504251480102539 11.600000381469727 C 12.657585144042969 11.766666412353516 12.734251976013184 11.976666450500488 12.734251976013184 12.229999542236328 C 12.734251976013184 12.476666450500488 12.657585144042969 12.683333396911621 12.504251480102539 12.850000381469727 C 12.350918769836426 13.010000228881836 12.124252319335938 13.09000015258789 11.824252128601074 13.09000015258789 C 11.524251937866211 13.09000015258789 11.300918579101562 13.010000228881836 11.154252052307129 12.850000381469727 C 11.0009183883667 12.683333396911621 10.924251556396484 12.476666450500488 10.924251556396484 12.229999542236328 ZM 19.008502960205078 9.600000381469727 C 19.02183723449707 8.940000534057617 19.09850311279297 8.420000076293945 19.23850440979004 8.039999961853027 C 19.378503799438477 7.6533331871032715 19.658504486083984 7.230000019073486 20.07850456237793 6.769999980926514 L 21.168502807617188 5.650000095367432 C 21.635169982910156 5.12333345413208 21.86850357055664 4.556666374206543 21.86850357055664 3.9499998092651367 C 21.86850357055664 3.369999885559082 21.71516990661621 2.9166669845581055 21.408504486083984 2.5900001525878906 C 21.108503341674805 2.256667137145996 20.665170669555664 2.0900001525878906 20.07850456237793 2.0900001525878906 C 19.518503189086914 2.0900001525878906 19.065170288085938 2.239999771118164 18.718503952026367 2.5399999618530273 C 18.378503799438477 2.8400001525878906 18.20850372314453 3.239999771118164 18.20850372314453 3.739999771118164 L 16.66850471496582 3.739999771118164 C 16.68183708190918 2.8466663360595703 17.0018367767334 2.123332977294922 17.628503799438477 1.5699996948242188 C 18.255170822143555 1.0233335494995117 19.071836471557617 0.75 20.07850456237793 0.75 C 21.125171661376953 0.75 21.941837310791016 1.0299997329711914 22.52850341796875 1.5900001525878906 C 23.108503341674805 2.1499996185302734 23.39850425720215 2.9200000762939453 23.39850425720215 3.8999996185302734 C 23.39850425720215 4.866666793823242 22.95183753967285 5.823333263397217 22.058504104614258 6.769999980926514 L 21.14850425720215 7.659999847412109 C 20.748504638671875 8.106666564941406 20.548503875732422 8.753334045410156 20.548503875732422 9.600000381469727 L 19.008502960205078 9.600000381469727 M 18.948503494262695 12.229999542236328 C 18.948503494262695 11.976666450500488 19.025171279907227 11.766666412353516 19.178504943847656 11.600000381469727 C 19.325170516967773 11.433333396911621 19.548503875732422 11.350000381469727 19.84850311279297 11.350000381469727 C 20.14850425720215 11.350000381469727 20.375171661376953 11.433333396911621 20.52850341796875 11.600000381469727 C 20.68183708190918 11.766666412353516 20.758502960205078 11.976666450500488 20.758502960205078 12.229999542236328 C 20.758502960205078 12.476666450500488 20.68183708190918 12.683333396911621 20.52850341796875 12.850000381469727 C 20.375171661376953 13.010000228881836 20.14850425720215 13.09000015258789 19.84850311279297 13.09000015258789 C 19.548503875732422 13.09000015258789 19.325170516967773 13.010000228881836 19.178504943847656 12.850000381469727 C 19.025171279907227 12.683333396911621 18.948503494262695 12.476666450500488 18.948503494262695 12.229999542236328 Z" transform="matrix(1.370215654373169, 0.17201650142669678, -0.17201650142669678, 1.370215654373169, 261.2825927734375, 419.2179260253906)" style="fill: rgb(51, 51, 51); white-space: pre; color: rgb(51, 51, 51);"/><path d="M 2.700000047683716 5.110000133514404 C 3.380000114440918 4.270000457763672 4.263333320617676 3.8500003814697266 5.349999904632568 3.8500003814697266 C 7.25 3.8500003814697266 8.210000038146973 4.920000076293945 8.229999542236328 7.059999942779541 L 8.229999542236328 13 L 6.690000057220459 13 L 6.690000057220459 7.059999942779541 C 6.683333396911621 6.413333415985107 6.5366668701171875 5.933333396911621 6.25 5.619999885559082 C 5.956666469573975 5.313333511352539 5.503333568572998 5.159999847412109 4.889999866485596 5.159999847412109 C 4.389999866485596 5.159999847412109 3.9533333778381348 5.289999961853027 3.5799999237060547 5.550000190734863 C 3.200000047683716 5.816666603088379 2.9066667556762695 6.166666507720947 2.700000047683716 6.599999904632568 L 2.700000047683716 13 L 1.159999966621399 13 L 1.159999966621399 0.25 L 2.700000047683716 0.25 L 2.700000047683716 5.110000133514404 ZM 14.252996444702148 13.170000076293945 C 13.032997131347656 13.170000076293945 12.042997360229492 12.770000457763672 11.282997131347656 11.970000267028809 C 10.51633071899414 11.170000076293945 10.132997512817383 10.100000381469727 10.132997512817383 8.760000228881836 L 10.132997512817383 8.479999542236328 C 10.132997512817383 7.586666584014893 10.302996635437012 6.789999961853027 10.642996788024902 6.090000152587891 C 10.982996940612793 5.389999866485596 11.459663391113281 4.8433332443237305 12.072997093200684 4.449999809265137 C 12.686330795288086 4.050000190734863 13.349663734436035 3.8500003814697266 14.062996864318848 3.8500003814697266 C 15.229663848876953 3.8500003814697266 16.136329650878906 4.236666679382324 16.782997131347656 5.010000228881836 C 17.429664611816406 5.776666641235352 17.75299835205078 6.87666654586792 17.75299835205078 8.309999465942383 L 17.75299835205078 8.949999809265137 L 11.672996520996094 8.949999809265137 C 11.692996978759766 9.836666107177734 11.949663162231445 10.550000190734863 12.442996978759766 11.09000015258789 C 12.942996978759766 11.636666297912598 13.572997093200684 11.90999984741211 14.332996368408203 11.90999984741211 C 14.879663467407227 11.90999984741211 15.3396635055542 11.800000190734863 15.712997436523438 11.579999923706055 C 16.08633041381836 11.359999656677246 16.416330337524414 11.066666603088379 16.7029972076416 10.699999809265137 L 17.64299774169922 11.430000305175781 C 16.889663696289062 12.59000015258789 15.759663581848145 13.170000076293945 14.252996444702148 13.170000076293945 M 14.062996864318848 5.110000133514404 C 13.442996978759766 5.110000133514404 12.922996520996094 5.336666584014893 12.502997398376465 5.789999961853027 C 12.08299732208252 6.243333339691162 11.822997093200684 6.87666654586792 11.722996711730957 7.690000057220459 L 16.222997665405273 7.690000057220459 L 16.222997665405273 7.570000171661377 C 16.17633056640625 6.789999961853027 15.966330528259277 6.186666488647461 15.592996597290039 5.760000228881836 C 15.212997436523438 5.326666831970215 14.702997207641602 5.110000133514404 14.062996864318848 5.110000133514404 ZM 21.199071884155273 13 L 19.659072875976562 13 L 19.659072875976562 0.25 L 21.199071884155273 0.25 L 21.199071884155273 13 ZM 25.32443618774414 13 L 23.784435272216797 13 L 23.784435272216797 0.25 L 25.32443618774414 0.25 L 25.32443618774414 13 ZM 27.37980079650879 8.430000305175781 C 27.37980079650879 7.550000190734863 27.549800872802734 6.756666660308838 27.889801025390625 6.050000190734863 C 28.236467361450195 5.349999904632568 28.71980094909668 4.810000419616699 29.339799880981445 4.430000305175781 C 29.953134536743164 4.043333053588867 30.65646743774414 3.8500003814697266 31.449800491333008 3.8500003814697266 C 32.67646789550781 3.8500003814697266 33.666465759277344 4.273333549499512 34.4197998046875 5.119999885559082 C 35.173133850097656 5.9666666984558105 35.549800872802734 7.0933332443237305 35.549800872802734 8.5 L 35.549800872802734 8.610000610351562 C 35.549800872802734 9.483333587646484 35.38313293457031 10.266666412353516 35.049800872802734 10.960000038146973 C 34.716468811035156 11.65333366394043 34.23646545410156 12.193333625793457 33.60980224609375 12.579999923706055 C 32.98979949951172 12.973333358764648 32.276466369628906 13.170000076293945 31.46980094909668 13.170000076293945 C 30.249801635742188 13.170000076293945 29.263134002685547 12.74666690826416 28.50979995727539 11.899999618530273 C 27.756467819213867 11.053333282470703 27.37980079650879 9.930000305175781 27.37980079650879 8.530000686645508 L 27.37980079650879 8.430000305175781 M 28.9197998046875 8.610000610351562 C 28.9197998046875 9.603333473205566 29.14980125427246 10.40333366394043 29.609800338745117 11.010000228881836 C 30.076467514038086 11.609999656677246 30.696468353271484 11.90999984741211 31.46980094909668 11.90999984741211 C 32.24980163574219 11.90999984741211 32.86980056762695 11.606666564941406 33.32979965209961 11 C 33.78980255126953 10.386667251586914 34.01980209350586 9.529999732971191 34.01980209350586 8.430000305175781 C 34.01980209350586 7.443333148956299 33.78313446044922 6.643333435058594 33.30979919433594 6.03000020980835 C 32.84313201904297 5.416666507720947 32.2231330871582 5.110000133514404 31.449800491333008 5.110000133514404 C 30.689800262451172 5.110000133514404 30.07979965209961 5.413333415985107 29.619800567626953 6.019999980926514 C 29.153133392333984 6.619999885559082 28.9197998046875 7.483333110809326 28.9197998046875 8.610000610351562 Z" transform="matrix(3.420635223388672, -0.2847459316253662, 0.2847459316253662, 3.420635223388672, 751.53369140625, 447.3525085449219)" style="fill: rgb(51, 51, 51); white-space: pre; color: rgb(51, 51, 51);"/><path d="M 6.460000038146973 24.270000457763672 C 5.679999828338623 24.270000457763672 4.9666666984558105 24.176666259765625 4.320000171661377 23.989999771118164 C 3.680000066757202 23.803333282470703 3.1433334350585938 23.489999771118164 2.7100000381469727 23.049999237060547 C 2.2766666412353516 22.610000610351562 2.059999942779541 22.079999923706055 2.059999942779541 21.459999084472656 C 2.059999942779541 20.85333251953125 2.253333330154419 20.39666748046875 2.640000104904175 20.09000015258789 C 3.0266666412353516 19.78333282470703 3.490000009536743 19.6299991607666 4.03000020980835 19.6299991607666 C 4.46999979019165 19.6299991607666 4.8433332443237305 19.78333282470703 5.150000095367432 20.09000015258789 C 5.456666469573975 20.39666748046875 5.610000133514404 20.790000915527344 5.610000133514404 21.270000457763672 C 5.610000133514404 21.5766658782959 5.506666660308838 21.883333206176758 5.300000190734863 22.190000534057617 C 5.086666584014893 22.496665954589844 4.863333225250244 22.69333267211914 4.630000114440918 22.780000686645508 C 5.130000114440918 22.953332901000977 5.610000133514404 23.040000915527344 6.070000171661377 23.040000915527344 C 7.296666622161865 23.040000915527344 8.210000038146973 22.573333740234375 8.8100004196167 21.639999389648438 C 9.40999984741211 20.706666946411133 9.710000038146973 19.40333366394043 9.710000038146973 17.729999542236328 L 9.710000038146973 15.640000343322754 C 9.463333129882812 16.393333435058594 9.00333309173584 17.02666664123535 8.329999923706055 17.540000915527344 C 7.6566667556762695 18.059999465942383 6.896666526794434 18.31999969482422 6.050000190734863 18.31999969482422 C 5.383333206176758 18.31999969482422 4.769999980926514 18.196666717529297 4.210000038146973 17.950000762939453 C 3.6566667556762695 17.709999084472656 3.180000066757202 17.3799991607666 2.7799999713897705 16.959999084472656 C 2.386666774749756 16.546667098999023 2.053333282470703 16.059999465942383 1.7799999713897705 15.5 C 1.5 14.940000534057617 1.2933332920074463 14.34333324432373 1.159999966621399 13.710000038146973 C 1.0266666412353516 13.076666831970215 0.9599999785423279 12.430000305175781 0.9599999785423279 11.770000457763672 C 0.9599999785423279 10.923333168029785 1.0700000524520874 10.106666564941406 1.2899999618530273 9.319999694824219 C 1.5099999904632568 8.533333778381348 1.8266667127609253 7.823333740234375 2.240000009536743 7.189999580383301 C 2.6600000858306885 6.550000190734863 3.2033333778381348 6.039999961853027 3.869999885559082 5.659999847412109 C 4.543333530426025 5.279999732971191 5.293333530426025 5.090000152587891 6.119999885559082 5.090000152587891 C 6.826666831970215 5.090000152587891 7.539999961853027 5.319999694824219 8.260000228881836 5.779999732971191 C 8.979999542236328 6.24666690826416 9.463333129882812 6.880000114440918 9.710000038146973 7.680000305175781 L 10.010000228881836 5.430000305175781 L 13.920000076293945 5.430000305175781 L 13.920000076293945 6.819999694824219 L 12.229999542236328 6.819999694824219 L 12.229999542236328 17.399999618530273 C 12.229999542236328 18.126667022705078 12.166666984558105 18.816667556762695 12.039999961853027 19.469999313354492 C 11.91333293914795 20.123332977294922 11.703332901000977 20.746665954589844 11.40999984741211 21.34000015258789 C 11.116666793823242 21.933334350585938 10.75 22.44333267211914 10.3100004196167 22.869998931884766 C 9.876667022705078 23.296667098999023 9.329999923706055 23.636667251586914 8.670000076293945 23.889999389648438 C 8.010000228881836 24.143333435058594 7.273333549499512 24.270000457763672 6.460000038146973 24.270000457763672 M 6.550000190734863 16.829999923706055 C 7.243333339691162 16.829999923706055 7.8433332443237305 16.586666107177734 8.350000381469727 16.100000381469727 C 8.856666564941406 15.613332748413086 9.223333358764648 15.016666412353516 9.449999809265137 14.309999465942383 C 9.683333396911621 13.59666633605957 9.800000190734863 12.826666831970215 9.800000190734863 12 C 9.800000190734863 10.40666675567627 9.506667137145996 9.116666793823242 8.920000076293945 8.130000114440918 C 8.34000015258789 7.136666297912598 7.566666603088379 6.640000343322754 6.599999904632568 6.640000343322754 C 5.960000038146973 6.640000343322754 5.400000095367432 6.880000114440918 4.920000076293945 7.359999656677246 C 4.446666717529297 7.8333330154418945 4.0966668128967285 8.433333396911621 3.869999885559082 9.15999984741211 C 3.6433334350585938 9.886666297912598 3.5299999713897705 10.680000305175781 3.5299999713897705 11.539999961853027 C 3.5299999713897705 12.213333129882812 3.5833332538604736 12.850000381469727 3.690000057220459 13.449999809265137 C 3.7899999618530273 14.043333053588867 3.9533333778381348 14.603333473205566 4.179999828338623 15.130000114440918 C 4.4066667556762695 15.649999618530273 4.723333358764648 16.06333351135254 5.130000114440918 16.3700008392334 C 5.5366668701171875 16.676666259765625 6.010000228881836 16.829999923706055 6.550000190734863 16.829999923706055 ZM 22.95969581604004 7.199999809265137 C 22.95969581604004 7.199999809265137 22.829696655273438 7.079999923706055 22.56969451904297 6.840000152587891 C 22.303028106689453 6.600000381469727 21.783029556274414 6.479999542236328 21.009695053100586 6.479999542236328 C 20.23636245727539 6.479999542236328 19.586362838745117 6.720000267028809 19.059696197509766 7.199999809265137 C 18.533029556274414 7.680000305175781 18.156362533569336 8.316666603088379 17.92969512939453 9.109999656677246 C 17.696361541748047 9.896666526794434 17.579694747924805 10.813333511352539 17.579694747924805 11.860000610351562 C 17.579694747924805 13.360000610351562 17.88969612121582 14.563333511352539 18.509695053100586 15.470000267028809 C 19.123027801513672 16.376667022705078 19.96636199951172 16.829999923706055 21.039695739746094 16.829999923706055 C 22.086360931396484 16.829999923706055 22.913028717041016 16.373332977294922 23.519695281982422 15.460000038146973 C 24.11969566345215 14.553333282470703 24.419696807861328 13.353333473205566 24.419696807861328 11.860000610351562 C 24.419696807861328 10.80666732788086 24.30636215209961 9.886666297912598 24.079696655273438 9.100000381469727 C 23.853029251098633 8.313333511352539 23.479694366455078 7.680000305175781 22.95969581604004 7.199999809265137 M 21.039695739746094 18.31999969482422 C 19.166362762451172 18.31999969482422 17.67302894592285 17.696666717529297 16.559696197509766 16.450000762939453 C 15.453028678894043 15.203332901000977 14.89969539642334 13.623332977294922 14.89969539642334 11.710000038146973 C 14.89969539642334 10.456666946411133 15.136362075805664 9.333333015441895 15.609695434570312 8.34000015258789 C 16.08969497680664 7.340000152587891 16.796361923217773 6.546667098999023 17.72969627380371 5.960000038146973 C 18.669694900512695 5.380000114440918 19.763029098510742 5.090000152587891 21.009695053100586 5.090000152587891 C 21.949695587158203 5.090000152587891 22.80636215209961 5.260000228881836 23.579696655273438 5.600000381469727 C 24.353029251098633 5.939999580383301 24.996360778808594 6.4066667556762695 25.509695053100586 7 C 26.023029327392578 7.5933332443237305 26.416362762451172 8.289999961853027 26.689695358276367 9.09000015258789 C 26.969696044921875 9.896666526794434 27.109695434570312 10.770000457763672 27.109695434570312 11.710000038146973 C 27.109695434570312 12.949999809265137 26.873027801513672 14.066666603088379 26.399696350097656 15.059999465942383 C 25.926361083984375 16.053333282470703 25.226362228393555 16.843334197998047 24.29969596862793 17.43000030517578 C 23.366363525390625 18.023332595825195 22.279695510864258 18.31999969482422 21.039695739746094 18.31999969482422 ZM 36.883995056152344 7.199999809265137 C 36.883995056152344 7.199999809265137 36.75399398803711 7.079999923706055 36.49399185180664 6.840000152587891 C 36.227325439453125 6.600000381469727 35.70732498168945 6.479999542236328 34.93399429321289 6.479999542236328 C 34.16065979003906 6.479999542236328 33.510658264160156 6.720000267028809 32.98399353027344 7.199999809265137 C 32.45732498168945 7.680000305175781 32.080657958984375 8.316666603088379 31.853992462158203 9.109999656677246 C 31.62065887451172 9.896666526794434 31.503992080688477 10.813333511352539 31.503992080688477 11.860000610351562 C 31.503992080688477 13.360000610351562 31.813993453979492 14.563333511352539 32.43399429321289 15.470000267028809 C 33.047325134277344 16.376667022705078 33.89065933227539 16.829999923706055 34.963993072509766 16.829999923706055 C 36.010658264160156 16.829999923706055 36.83732604980469 16.373332977294922 37.443992614746094 15.460000038146973 C 38.04399108886719 14.553333282470703 38.343994140625 13.353333473205566 38.343994140625 11.860000610351562 C 38.343994140625 10.80666732788086 38.23065948486328 9.886666297912598 38.00399398803711 9.100000381469727 C 37.77732849121094 8.313333511352539 37.40399169921875 7.680000305175781 36.883995056152344 7.199999809265137 M 34.963993072509766 18.31999969482422 C 33.090660095214844 18.31999969482422 31.597326278686523 17.696666717529297 30.483993530273438 16.450000762939453 C 29.37732696533203 15.203332901000977 28.823993682861328 13.623332977294922 28.823993682861328 11.710000038146973 C 28.823993682861328 10.456666946411133 29.060659408569336 9.333333015441895 29.533992767333984 8.34000015258789 C 30.013992309570312 7.340000152587891 30.720659255981445 6.546667098999023 31.653993606567383 5.960000038146973 C 32.593994140625 5.380000114440918 33.68732452392578 5.090000152587891 34.93399429321289 5.090000152587891 C 35.873992919921875 5.090000152587891 36.73065948486328 5.260000228881836 37.50399398803711 5.600000381469727 C 38.27732849121094 5.939999580383301 38.920658111572266 6.4066667556762695 39.433990478515625 7 C 39.94732666015625 7.5933332443237305 40.340660095214844 8.289999961853027 40.613990783691406 9.09000015258789 C 40.89399337768555 9.896666526794434 41.033992767333984 10.770000457763672 41.033992767333984 11.710000038146973 C 41.033992767333984 12.949999809265137 40.797325134277344 14.066666603088379 40.32399368286133 15.059999465942383 C 39.85065841674805 16.053333282470703 39.150657653808594 16.843334197998047 38.22399139404297 17.43000030517578 C 37.2906608581543 18.023332595825195 36.20399475097656 18.31999969482422 34.963993072509766 18.31999969482422 ZM 51.6182861328125 16.010000228881836 C 51.21828842163086 16.75 50.68162155151367 17.31999969482422 50.0082893371582 17.719999313354492 C 49.32828903198242 18.1200008392334 48.64828872680664 18.31999969482422 47.96828842163086 18.31999969482422 C 46.414955139160156 18.31999969482422 45.16828918457031 17.713333129882812 44.22828674316406 16.5 C 43.28828811645508 15.286666870117188 42.81828689575195 13.690000534057617 42.81828689575195 11.710000038146973 C 42.81828689575195 9.716666221618652 43.29495620727539 8.113333702087402 44.248287200927734 6.899999618530273 C 45.208290100097656 5.693333625793457 46.5082893371582 5.090000152587891 48.14828872680664 5.090000152587891 C 48.79495620727539 5.090000152587891 49.43495559692383 5.256667137145996 50.06828689575195 5.590000152587891 C 50.69495391845703 5.923333168029785 51.201622009277344 6.380000114440918 51.588287353515625 6.960000038146973 L 51.588287353515625 1.7999992370605469 L 48.838287353515625 1.7999992370605469 L 48.838287353515625 0.3600006103515625 L 54.1082878112793 0.3600006103515625 L 54.1082878112793 16.690000534057617 L 56.23828887939453 16.690000534057617 L 56.23828887939453 18 L 52.07828903198242 18 L 51.6182861328125 16.010000228881836 M 48.56828689575195 6.409999847412109 C 48.03495407104492 6.409999847412109 47.56495666503906 6.566666603088379 47.158287048339844 6.880000114440918 C 46.744956970214844 7.193333625793457 46.42162322998047 7.613333702087402 46.188289642333984 8.140000343322754 C 45.9549560546875 8.666666984558105 45.781620025634766 9.236666679382324 45.66828918457031 9.850000381469727 C 45.554954528808594 10.463333129882812 45.498287200927734 11.103333473205566 45.498287200927734 11.770000457763672 C 45.498287200927734 12.643333435058594 45.60162353515625 13.453332901000977 45.80828857421875 14.199999809265137 C 46.0082893371582 14.946666717529297 46.34162139892578 15.569999694824219 46.80828857421875 16.06999969482422 C 47.27495574951172 16.5766658782959 47.83162307739258 16.829999923706055 48.47828674316406 16.829999923706055 C 49.43162155151367 16.829999923706055 50.21828842163086 16.33333396911621 50.838287353515625 15.34000015258789 C 51.458290100097656 14.34666633605957 51.768287658691406 13.09000015258789 51.768287658691406 11.569999694824219 C 51.768287658691406 10.94333267211914 51.7049560546875 10.333333969116211 51.57828903198242 9.739999771118164 C 51.458290100097656 9.15333366394043 51.27162170410156 8.606666564941406 51.018287658691406 8.100000381469727 C 50.77162170410156 7.5933332443237305 50.43495559692383 7.183333396911621 50.0082893371582 6.869999885559082 C 49.588287353515625 6.563333511352539 49.1082878112793 6.409999847412109 48.56828689575195 6.409999847412109 Z" transform="matrix(1.3139867782592773, 0.30907851457595825, -0.30907851457595825, 1.3139867782592773, 677.9379272460938, 364.7209777832031)" style="fill: rgb(51, 51, 51); white-space: pre; color: rgb(51, 51, 51);"/><path d="M 0.41999998688697815 10.010000228881836 L 10.539999961853027 10.010000228881836 L 10.539999961853027 13.870000839233398 C 11.466666221618652 11.016666412353516 13.50333309173584 9.59000015258789 16.649999618530273 9.59000015258789 C 19.803333282470703 9.59000015258789 21.71666717529297 11.100000381469727 22.389999389648438 14.119999885559082 C 23.3700008392334 11.100000381469727 25.426666259765625 9.59000015258789 28.559999465942383 9.59000015258789 C 32.67333221435547 9.59000015258789 34.72999954223633 11.926666259765625 34.72999954223633 16.600000381469727 L 34.72999954223633 29.239999771118164 L 37.09000015258789 29.239999771118164 L 37.09000015258789 30 L 25.450000762939453 30 L 25.450000762939453 29.239999771118164 L 26.920000076293945 29.239999771118164 L 26.920000076293945 15.59000015258789 C 26.920000076293945 13.463333129882812 26.739999771118164 12.219999313354492 26.3799991607666 11.860000610351562 C 26.206666946411133 11.686666488647461 25.979999542236328 11.600000381469727 25.700000762939453 11.600000381469727 C 24.893333435058594 11.600000381469727 24.18000030517578 12.14666748046875 23.559999465942383 13.239999771118164 C 22.946666717529297 14.333333015441895 22.639999389648438 15.720000267028809 22.639999389648438 17.399999618530273 L 22.639999389648438 29.239999771118164 L 24.149999618530273 29.239999771118164 L 24.149999618530273 30 L 13.359999656677246 30 L 13.359999656677246 29.239999771118164 L 14.829999923706055 29.239999771118164 L 14.829999923706055 15.59000015258789 C 14.829999923706055 13.463333129882812 14.646666526794434 12.219999313354492 14.279999732971191 11.860000610351562 C 14.113333702087402 11.686666488647461 13.890000343322754 11.600000381469727 13.609999656677246 11.600000381469727 C 12.823333740234375 11.600000381469727 12.116666793823242 12.196666717529297 11.489999771118164 13.389999389648438 C 10.856666564941406 14.576666831970215 10.539999961853027 15.99666690826416 10.539999961853027 17.649999618530273 L 10.539999961853027 29.239999771118164 L 12.050000190734863 29.239999771118164 L 12.050000190734863 30 L 0.41999998688697815 30 L 0.41999998688697815 29.239999771118164 L 2.7300000190734863 29.239999771118164 L 2.7300000190734863 10.760000228881836 L 0.41999998688697815 10.760000228881836 L 0.41999998688697815 10.010000228881836 ZM 51.278465270996094 21.729999542236328 L 51.278465270996094 18.15999984741211 C 51.278465270996094 15.4399995803833 51.131797790527344 13.456666946411133 50.838462829589844 12.209999084472656 C 50.5384635925293 10.963333129882812 49.858463287353516 10.34000015258789 48.7984619140625 10.34000015258789 C 48.178462982177734 10.34000015258789 47.68179702758789 10.516666412353516 47.30846405029297 10.870000839233398 C 46.928462982177734 11.216667175292969 46.655128479003906 11.796667098999023 46.48846435546875 12.610000610351562 C 46.235130310058594 13.870000839233398 46.108463287353516 15.789999961853027 46.108463287353516 18.369998931884766 L 46.108463287353516 21.639999389648438 C 46.108463287353516 24.69333267211914 46.198463439941406 26.52666664123535 46.37846374511719 27.139999389648438 C 46.56513214111328 27.760000228881836 46.755130767822266 28.266666412353516 46.948463439941406 28.65999984741211 C 47.255130767822266 29.3266658782959 47.858463287353516 29.65999984741211 48.75846481323242 29.65999984741211 C 49.845130920410156 29.65999984741211 50.55846405029297 29.030000686645508 50.89846420288086 27.770000457763672 C 51.151798248291016 26.876667022705078 51.278465270996094 24.863332748413086 51.278465270996094 21.729999542236328 M 48.66846466064453 30.420000076293945 C 45.16846466064453 30.420000076293945 42.52179718017578 29.523332595825195 40.72846221923828 27.729999542236328 C 38.941795349121094 25.93666648864746 38.0484619140625 23.366666793823242 38.0484619140625 20.020000457763672 C 38.0484619140625 16.68000030517578 39.005130767822266 14.106666564941406 40.91846466064453 12.299999237060547 C 42.838462829589844 10.49333381652832 45.53512954711914 9.59000015258789 49.00846481323242 9.59000015258789 C 52.48179626464844 9.59000015258789 55.07179641723633 10.423334121704102 56.778465270996094 12.09000015258789 C 58.485130310058594 13.75666618347168 59.338462829589844 16.296667098999023 59.338462829589844 19.709999084472656 C 59.338462829589844 26.850000381469727 55.78179931640625 30.420000076293945 48.66846466064453 30.420000076293945 ZM 74.53984832763672 11.180000305175781 C 73.49984741210938 11.180000305175781 72.58985137939453 11.85333251953125 71.80985260009766 13.200000762939453 C 71.02318572998047 14.546667098999023 70.62985229492188 16.143333435058594 70.62985229492188 17.989999771118164 L 70.62985229492188 29.239999771118164 L 73.60984802246094 29.239999771118164 L 73.60984802246094 30 L 60.509849548339844 30 L 60.509849548339844 29.239999771118164 L 62.81985092163086 29.239999771118164 L 62.81985092163086 10.760000228881836 L 60.509849548339844 10.760000228881836 L 60.509849548339844 10.010000228881836 L 70.62985229492188 10.010000228881836 L 70.62985229492188 14.039999961853027 C 70.99652099609375 12.613332748413086 71.69651794433594 11.513334274291992 72.72985076904297 10.739999771118164 C 73.76985168457031 9.973333358764648 74.94651794433594 9.59000015258789 76.25984954833984 9.59000015258789 C 77.57318115234375 9.59000015258789 78.6431884765625 9.959999084472656 79.4698486328125 10.700000762939453 C 80.29651641845703 11.440000534057617 80.70985412597656 12.489999771118164 80.70985412597656 13.850000381469727 C 80.70985412597656 15.210000038146973 80.40318298339844 16.253334045410156 79.78985595703125 16.979999542236328 C 79.16985321044922 17.706666946411133 78.22318267822266 18.06999969482422 76.9498519897461 18.06999969482422 C 75.67652130126953 18.06999969482422 74.73985290527344 17.649999618530273 74.13985443115234 16.810001373291016 C 73.53984832763672 15.970000267028809 73.46318054199219 14.8100004196167 73.90985107421875 13.329999923706055 L 75.41985321044922 13.329999923706055 C 76.1198501586914 11.89666748046875 75.8265151977539 11.180000305175781 74.53984832763672 11.180000305175781 ZM 81.37564849853516 10.010000228881836 L 91.50564575195312 10.010000228881836 L 91.50564575195312 13.870000839233398 C 91.95231628417969 12.583333969116211 92.63565063476562 11.546667098999023 93.55564880371094 10.760000228881836 C 94.48231506347656 9.979999542236328 95.88231658935547 9.59000015258789 97.75564575195312 9.59000015258789 C 102.09564971923828 9.59000015258789 104.2656478881836 11.926666259765625 104.2656478881836 16.600000381469727 L 104.2656478881836 29.239999771118164 L 106.62564849853516 29.239999771118164 L 106.62564849853516 30 L 94.73564910888672 30 L 94.73564910888672 29.239999771118164 L 96.45565032958984 29.239999771118164 L 96.45565032958984 15.59000015258789 C 96.45565032958984 13.90999984741211 96.34564971923828 12.826665878295898 96.12564849853516 12.34000015258789 C 95.89897918701172 11.84666633605957 95.49231719970703 11.600000381469727 94.90564727783203 11.600000381469727 C 94.00564575195312 11.600000381469727 93.21565246582031 12.190000534057617 92.53564453125 13.370000839233398 C 91.84898376464844 14.543333053588867 91.50564575195312 15.970000267028809 91.50564575195312 17.649999618530273 L 91.50564575195312 29.239999771118164 L 93.30564880371094 29.239999771118164 L 93.30564880371094 30 L 81.37564849853516 30 L 81.37564849853516 29.239999771118164 L 83.6856460571289 29.239999771118164 L 83.6856460571289 10.760000228881836 L 81.37564849853516 10.760000228881836 L 81.37564849853516 10.010000228881836 ZM 113.33241271972656 7.1100006103515625 C 113.33241271972656 7.1100006103515625 112.96241760253906 7.1100006103515625 112.22241973876953 7.1100006103515625 C 111.48241424560547 7.1100006103515625 110.79574584960938 6.733333587646484 110.16241455078125 5.979999542236328 C 109.53575134277344 5.219999313354492 109.22241973876953 4.280000686645508 109.22241973876953 3.1599998474121094 C 109.22241973876953 2.0400009155273438 109.56575012207031 1.1166667938232422 110.2524185180664 0.3899993896484375 C 110.9390869140625 -0.3366661071777344 111.98241424560547 -0.7000007629394531 113.38241577148438 -0.7000007629394531 C 114.78241729736328 -0.7000007629394531 115.84574890136719 -0.3733329772949219 116.57241821289062 0.2800006866455078 C 117.29907989501953 0.9400005340576172 117.66241455078125 1.8799991607666016 117.66241455078125 3.1000003814697266 C 117.66241455078125 4.319999694824219 117.31241607666016 5.293333053588867 116.61241912841797 6.020000457763672 C 115.91241455078125 6.746665954589844 114.81908416748047 7.1100006103515625 113.33241271972656 7.1100006103515625 M 106.99241638183594 10.010000228881836 L 117.28241729736328 10.010000228881836 L 117.28241729736328 29.239999771118164 L 119.63241577148438 29.239999771118164 L 119.63241577148438 30 L 107.16241455078125 30 L 107.16241455078125 29.239999771118164 L 109.47241973876953 29.239999771118164 L 109.47241973876953 10.760000228881836 L 106.99241638183594 10.760000228881836 L 106.99241638183594 10.010000228881836 ZM 120.55372619628906 10.010000228881836 L 130.68373107910156 10.010000228881836 L 130.68373107910156 13.870000839233398 C 131.13038635253906 12.583333969116211 131.813720703125 11.546667098999023 132.73373413085938 10.760000228881836 C 133.660400390625 9.979999542236328 135.06039428710938 9.59000015258789 136.93373107910156 9.59000015258789 C 141.2737274169922 9.59000015258789 143.4437255859375 11.926666259765625 143.4437255859375 16.600000381469727 L 143.4437255859375 29.239999771118164 L 145.80372619628906 29.239999771118164 L 145.80372619628906 30 L 133.91372680664062 30 L 133.91372680664062 29.239999771118164 L 135.63372802734375 29.239999771118164 L 135.63372802734375 15.59000015258789 C 135.63372802734375 13.90999984741211 135.5237274169922 12.826665878295898 135.30372619628906 12.34000015258789 C 135.07705688476562 11.84666633605957 134.67039489746094 11.600000381469727 134.08372497558594 11.600000381469727 C 133.18373107910156 11.600000381469727 132.3937225341797 12.190000534057617 131.71372985839844 13.370000839233398 C 131.0270538330078 14.543333053588867 130.68373107910156 15.970000267028809 130.68373107910156 17.649999618530273 L 130.68373107910156 29.239999771118164 L 132.48373413085938 29.239999771118164 L 132.48373413085938 30 L 120.55372619628906 30 L 120.55372619628906 29.239999771118164 L 122.86372375488281 29.239999771118164 L 122.86372375488281 10.760000228881836 L 120.55372619628906 10.760000228881836 L 120.55372619628906 10.010000228881836 ZM 163.1804962158203 7.819999694824219 L 164.36050415039062 7.1100006103515625 C 164.52716064453125 6.24333381652832 164.1905059814453 5.809999465942383 163.35049438476562 5.809999465942383 C 162.14382934570312 5.809999465942383 161.54049682617188 6.733333587646484 161.54049682617188 8.579999923706055 C 161.54049682617188 9.30666732788086 161.6405029296875 10.14666748046875 161.8404998779297 11.100000381469727 C 163.9671630859375 12.526666641235352 165.03050231933594 14.353333473205566 165.03050231933594 16.579999923706055 C 165.03050231933594 18.80666732788086 164.260498046875 20.536666870117188 162.7205047607422 21.770000457763672 C 161.1804962158203 23.003334045410156 159.09384155273438 23.619998931884766 156.4604949951172 23.619998931884766 C 155.36717224121094 23.619998931884766 154.2338409423828 23.50666618347168 153.0605010986328 23.280000686645508 C 151.82716369628906 24.066665649414062 151.2104949951172 24.65333366394043 151.2104949951172 25.040000915527344 C 151.2104949951172 25.433334350585938 152.10716247558594 25.630001068115234 153.90049743652344 25.630001068115234 L 158.1804962158203 25.630001068115234 C 164.54049682617188 25.630001068115234 167.7205047607422 27.913333892822266 167.7205047607422 32.47999954223633 C 167.7205047607422 34.939998626708984 166.760498046875 36.893333435058594 164.8404998779297 38.34000015258789 C 162.92050170898438 39.779998779296875 159.9304962158203 40.5 155.87049865722656 40.5 C 148.95716857910156 40.5 145.50050354003906 39.003334045410156 145.50050354003906 36.01000213623047 C 145.50050354003906 34.383331298828125 146.57716369628906 33.26333236694336 148.73049926757812 32.650001525878906 L 151.25050354003906 33.779998779296875 C 151.03050231933594 34.59333419799805 150.92050170898438 35.36333465576172 150.92050170898438 36.09000015258789 C 150.92050170898438 38.496665954589844 152.7104949951172 39.70000076293945 156.29049682617188 39.70000076293945 C 158.4771728515625 39.70000076293945 160.15716552734375 39.2933349609375 161.33050537109375 38.47999954223633 C 162.510498046875 37.67333221435547 163.10049438476562 36.66666793823242 163.10049438476562 35.459999084472656 C 163.10049438476562 34.253334045410156 162.74383544921875 33.45000076293945 162.03050231933594 33.04999923706055 C 161.31716918945312 32.643333435058594 159.89382934570312 32.439998626708984 157.760498046875 32.439998626708984 L 153.6905059814453 32.439998626708984 C 151.423828125 32.439998626708984 149.80050659179688 32.060001373291016 148.82049560546875 31.299999237060547 C 147.8404998779297 30.546667098999023 147.35049438476562 29.616666793823242 147.35049438476562 28.510000228881836 C 147.35049438476562 27.40333366394043 147.70050048828125 26.479999542236328 148.40049743652344 25.739999771118164 C 149.10049438476562 24.99333381652832 150.34716796875 24.07666778564453 152.1405029296875 22.989999771118164 C 148.8871612548828 22.06333351135254 147.260498046875 19.933334350585938 147.260498046875 16.600000381469727 C 147.260498046875 14.5 148.0171661376953 12.80666732788086 149.53050231933594 11.520000457763672 C 151.04383850097656 10.233333587646484 153.3138427734375 9.59000015258789 156.3404998779297 9.59000015258789 C 158.16050720214844 9.59000015258789 159.71383666992188 9.940000534057617 161.00050354003906 10.639999389648438 C 160.83383178710938 9.879999160766602 160.75050354003906 9.19333267211914 160.75050354003906 8.579999923706055 C 160.75050354003906 7.013334274291992 161.17050170898438 5.879999160766602 162.010498046875 5.180000305175781 C 162.85049438476562 4.479999542236328 163.78717041015625 4.129999160766602 164.82049560546875 4.129999160766602 C 165.8538360595703 4.129999160766602 166.68716430664062 4.40333366394043 167.32049560546875 4.950000762939453 C 167.94717407226562 5.496665954589844 168.260498046875 6.24333381652832 168.260498046875 7.190000534057617 C 168.260498046875 8.143333435058594 168.010498046875 8.850000381469727 167.510498046875 9.309999465942383 C 167.0038299560547 9.776666641235352 166.39382934570312 10.010000228881836 165.6804962158203 10.010000228881836 C 164.9671630859375 10.010000228881836 164.3804931640625 9.819999694824219 163.92050170898438 9.440000534057617 C 163.45382690429688 9.059999465942383 163.20716857910156 8.520000457763672 163.1804962158203 7.819999694824219 M 154.28050231933594 15.680000305175781 L 154.28050231933594 17.950000762939453 C 154.28050231933594 19.823333740234375 154.4405059814453 21.09666633605957 154.760498046875 21.770000457763672 C 155.08050537109375 22.44333267211914 155.57049560546875 22.780000686645508 156.23049926757812 22.780000686645508 C 156.8905029296875 22.780000686645508 157.36717224121094 22.450000762939453 157.66050720214844 21.790000915527344 C 157.95384216308594 21.130001068115234 158.10049438476562 19.779998779296875 158.10049438476562 17.739999771118164 L 158.10049438476562 15.680000305175781 C 158.10049438476562 13.49333381652832 157.9604949951172 12.05666732788086 157.6804962158203 11.370000839233398 C 157.40049743652344 10.683332443237305 156.9304962158203 10.34000015258789 156.2705078125 10.34000015258789 C 155.61717224121094 10.34000015258789 155.12049865722656 10.696666717529297 154.78050231933594 11.40999984741211 C 154.44717407226562 12.129999160766602 154.28050231933594 13.553333282470703 154.28050231933594 15.680000305175781 ZM 175.320068359375 22.520000457763672 L 175.320068359375 18.90999984741211 C 175.320068359375 16.503334045410156 174.8634033203125 13.639999389648438 173.9500732421875 10.319999694824219 C 173.0434112548828 7.00666618347168 172.59007263183594 4.746665954589844 172.59007263183594 3.5400009155273438 C 172.59007263183594 2.333333969116211 172.91673278808594 1.4666671752929688 173.570068359375 0.9400005340576172 C 174.23007202148438 0.4066658020019531 175.0367431640625 0.1399993896484375 175.9900665283203 0.1399993896484375 C 178.1167449951172 0.1399993896484375 179.18006896972656 1.2733325958251953 179.18006896972656 3.5400009155273438 C 179.18006896972656 4.85333251953125 178.69007873535156 7.149999618530273 177.71006774902344 10.430000305175781 C 176.73007202148438 13.703332901000977 176.2400665283203 16.543333053588867 176.2400665283203 18.950000762939453 L 176.2400665283203 22.520000457763672 L 175.320068359375 22.520000457763672 M 175.63006591796875 30.420000076293945 C 175.63006591796875 30.420000076293945 175.3667449951172 30.420000076293945 174.84007263183594 30.420000076293945 C 174.320068359375 30.420000076293945 173.80007934570312 30.1200008392334 173.2800750732422 29.520000457763672 C 172.76007080078125 28.913333892822266 172.5000762939453 28.156665802001953 172.5000762939453 27.25 C 172.5000762939453 26.336666107177734 172.7800750732422 25.579999923706055 173.34007263183594 24.979999542236328 C 173.9000701904297 24.380001068115234 174.67007446289062 24.079999923706055 175.6500701904297 24.079999923706055 C 176.63006591796875 24.079999923706055 177.4134063720703 24.336666107177734 178.0000762939453 24.850000381469727 C 178.59339904785156 25.369998931884766 178.89007568359375 26.133333206176758 178.89007568359375 27.139999389648438 C 178.89007568359375 28.15333366394043 178.61007690429688 28.953332901000977 178.05007934570312 29.540000915527344 C 177.4900665283203 30.126667022705078 176.68341064453125 30.420000076293945 175.63006591796875 30.420000076293945 Z" transform="matrix(1.0095062255859375, -0.13443619012832642, 0.13443619012832642, 1.0095062255859375, 830.7291259765625, 278.474365234375)" style="fill: rgb(51, 51, 51); white-space: pre; color: rgb(51, 51, 51);"/></svg>